<svg width="220" height="227" viewBox="0 0 220 227" fill="none" xmlns="http://www.w3.org/2000/svg">
<g clip-path="url(#clip0_24_971)">
<rect x="0.745117" y="0.229248" width="218.434" height="225.825" fill="#1C5CFF"/>
<circle cx="114.479" cy="172.082" r="90.6862" fill="#3D74FF"/>
<path d="M176.104 152.542C176.104 169.019 169.559 184.822 157.907 196.473C146.256 208.124 130.454 214.67 113.977 214.67C97.4994 214.67 81.697 208.124 70.0459 196.473C58.3947 184.822 51.8491 169.019 51.8491 152.542L78.4187 152.542C78.4187 161.973 82.165 171.017 88.8334 177.685C95.5018 184.354 104.546 188.1 113.977 188.1C123.407 188.1 132.452 184.354 139.12 177.685C145.788 171.017 149.535 161.973 149.535 152.542H176.104Z" fill="#779DFF"/>
</g>
<rect x="1.15571" y="0.639838" width="217.613" height="225.003" stroke="#C9C9C9" stroke-width="0.821181"/>
<defs>
<clipPath id="clip0_24_971">
<rect x="0.745117" y="0.229248" width="218.434" height="225.825" fill="white"/>
</clipPath>
</defs>
</svg>
